{"title":"American.Odyssey.S01E02.1080p.WEB-DL.DD5.1.H.264-KiNGS[rarbg]","uid":11854633,"size":1802844108,"categoryP":"video","categoryS":"hd___tv_shows","magnet":"?xt=urn:btih:fa15d75c9859f722a32b9bc8d913f5c8ca751044&amp;dn=American.Odyssey.S01E02.1080p.WEB-DL.DD5.1.H.264-KiNGS%5Brarbg%5D&amp;tr=udp%3A%2F%2Ftracker.openbittorrent.com%3A80&amp;tr=udp%3A%2F%2Fopen.demonii.com%3A1337&amp;tr=udp%3A%2F%2Ftracker.coppersurfer.tk%3A6969&amp;tr=udp%3A%2F%2Fexodus.desync.com%3A6969","seeders":8,"leechers":8,"uploader":"vickey1992","files":3,"time":1430142443,"description":"Video\nID                                       : 2\nFormat                                   : AVC\nFormat/Info                              : Advanced Video Codec\nFormat profile                           : &lt;a class=&quot;__cf_email__&quot; href=&quot;/cdn-cgi/l/email-protection&quot; data-cfemail=&quot;e6ae8f818ea6aad2c8d6&quot;&gt;[email&amp;#160;protected]&lt;/a&gt;&lt;script cf-hash='f9e31' type=&quot;text/javascript&quot;&gt;\n/* &lt;![CDATA[ */!function(){try{var t=&quot;currentScript&quot;in document?document.currentScript:function(){for(var t=document.getElementsByTagName(&quot;script&quot;),e=t.length;e--;)if(t[e].getAttribute(&quot;cf-hash&quot;))return t[e]}();if(t&amp;&amp;t.previousSibling){var e,r,n,i,c=t.previousSibling,a=c.getAttribute(&quot;data-cfemail&quot;);if(a){for(e=&quot;&quot;,r=parseInt(a.substr(0,2),16),n=2;a.length-n;n+=2)i=parseInt(a.substr(n,2),16)^r,e+=String.fromCharCode(i);e=document.createTextNode(e),c.parentNode.replaceChild(e,c)}}}catch(u){}}();/* ]]&gt; */&lt;/script&gt;\nFormat settings, CABAC                   : Yes\nFormat settings, ReFrames                : 4 frames\nCodec ID                                 : V_MPEG4/ISO/AVC\nDuration                                 : 42mn 56s\nBit rate                                 : 5 101 Kbps\nWidth                                    : 1 920 pixels\nHeight                                   : 1 080 pixels\nDisplay aspect ratio                     : 16:9\nFrame rate mode                          : Constant\nFrame rate                               : 23.976 fps\nColor space                              : YUV\nChroma subsampling                       : 4:2:0\nBit depth                                : 8 bits\nScan type                                : Progressive\nBits/(Pixel*Frame)                       : 0.103\nStream size                              : 1.53 GiB (91%)\nLanguage                                 : English\nDefault                                  : Yes\nForced                                   : No\nColor primaries                          : BT.709\nTransfer characteristics                 : BT.709\nMatrix coefficients                      : BT.709\nColor range                              : Limited\n\nAudio\nID                                       : 3\nFormat                                   : AC-3\nFormat/Info                              : Audio Coding 3\nMode extension                           : CM (complete main)\nFormat settings, Endianness              : Big\nCodec ID                                 : A_AC3\nDuration                                 : 42mn 56s\nBit rate mode                            : Constant\nBit rate                                 : 384 Kbps\nChannel(s)                               : 6 channels\nChannel positions                        : Front: L C R, Side: L R, LFE\nSampling rate                            : 48.0 KHz\nBit depth                                : 16 bits\nCompression mode                         : Lossy\nStream size                              : 118 MiB (7%)\nLanguage                                 : English\nDefault                                  : Yes\nForced                                   : No\n\nText\nID                                       : 1\nFormat                                   : UTF-8\nCodec ID                                 : S_TEXT/UTF8\nCodec ID/Info                            : UTF-8 Plain Text\nDefault                                  : Yes\nForced                                   : No","torrent":{"xt":"urn:btih:fa15d75c9859f722a32b9bc8d913f5c8ca751044","amp;dn":"American.Odyssey.S01E02.1080p.WEB-DL.DD5.1.H.264-KiNGS%5Brarbg%5D","amp;tr":["udp%3A%2F%2Ftracker.openbittorrent.com%3A80","udp%3A%2F%2Fopen.demonii.com%3A1337","udp%3A%2F%2Ftracker.coppersurfer.tk%3A6969","udp%3A%2F%2Fexodus.desync.com%3A6969"],"infoHash":"fa15d75c9859f722a32b9bc8d913f5c8ca751044","infoHashBuffer":{"type":"Buffer","data":[250,21,215,92,152,89,247,34,163,43,155,200,217,19,245,200,202,117,16,68]},"announce":[],"urlList":[]}}